# xmcd
#
# Track frame offsets: 
#        150
#        20652
#        38201
#        55605
#        69262
#        93063
#        110768
#        128055
#        144158
#        164483
#        182926
#        198075
#        218801
#
# Disc length: 3189 seconds
#
# Revision: 1
# Processed by: cddbd v1.5.2PL0 Copyright (c) Steve Scherf et al.
# Submitted via: ExactAudioCopy v1.0b3
#
DISCID=af0c730d
DTITLE=Herbert Grönemeyer - I Walk
DYEAR=2012
DGENRE=A Cappella
TTITLE0=Mensch
TTITLE1=All That I Need
TTITLE2=Will I Ever Learn feat. Antony Hegarty
TTITLE3=Keep Hurting Me
TTITLE4=To The Sea feat. James Dean Bradfield
TTITLE5=Because Of You
TTITLE6=Before The Morning
TTITLE7=I Walk
TTITLE8=Airplanes In My Head
TTITLE9=Behind The Glass
TTITLE10=Same Old Boys
TTITLE11=The Tunnel
TTITLE12=Mensch (Bonus Track) feat. Bono
EXTD=
EXTT0=
EXTT1=
EXTT2=
EXTT3=
EXTT4=
EXTT5=
EXTT6=
EXTT7=
EXTT8=
EXTT9=
EXTT10=
EXTT11=
EXTT12=
PLAYORDER=
